<?xml version="1.0" encoding="utf-8"?>
<!-- Generator: Adobe Illustrator 16.0.4, SVG Export Plug-In . SVG Version: 6.00 Build 0)  -->
<!DOCTYPE svg PUBLIC "-//W3C//DTD SVG 1.1//EN" "http://www.w3.org/Graphics/SVG/1.1/DTD/svg11.dtd">
<svg version="1.1" id="Layer_1" xmlns="http://www.w3.org/2000/svg" xmlns:xlink="http://www.w3.org/1999/xlink" x="0px" y="0px"
	 width="140px" height="140px" viewBox="0 0 140 140" enable-background="new 0 0 140 140" xml:space="preserve">
<g>
	<path fill="#6CC6EC" d="M70,140c-38.598,0-70-31.402-70-70s31.401-70,70-70s70,31.402,70,70S108.598,140,70,140z M70,9.411
		C36.591,9.411,9.412,36.59,9.412,70c0,33.41,27.18,60.589,60.588,60.589c33.41,0,60.589-27.18,60.589-60.589
		C130.589,36.59,103.409,9.411,70,9.411z"/>
	<g>
		<polygon fill="#6CC6EC" points="115.375,56.572 72.3,45.236 28.084,56.574 72.295,82.644 		"/>
		<path fill="#6CC6EC" d="M96.618,71.591L72.316,86.299L46.837,71.275c-0.396,3.097-0.892,6.821-1.482,10.952
			c-0.898,6.286,16.164,16.828,26.348,16.828c10.184,0,27.255-10.542,26.356-16.828C97.489,78.237,97.008,74.626,96.618,71.591z"/>
		<path fill="#6CC6EC" d="M37.293,80.656h0.035v-3.825c1.151-0.466,1.966-1.592,1.966-2.91c0-1.319-0.815-2.444-1.966-2.911v-5.343
			l-2.353-1.388v6.73c-1.152,0.467-1.967,1.592-1.967,2.911c0,1.318,0.815,2.444,1.967,2.91v3.586
			c-0.985,2.692-2.348,6.434-2.696,7.479c-0.563,1.685,1.066,2.639,3.761,2.639c2.693,0,4.569-1.105,4.096-2.527
			C39.795,86.989,38.368,83.362,37.293,80.656z"/>
	</g>
</g>
</svg>
