<?xml version="1.0" encoding="utf-8"?>
<!-- Generator: Adobe Illustrator 16.0.4, SVG Export Plug-In . SVG Version: 6.00 Build 0)  -->
<!DOCTYPE svg PUBLIC "-//W3C//DTD SVG 1.1//EN" "http://www.w3.org/Graphics/SVG/1.1/DTD/svg11.dtd">
<svg version="1.1" id="Layer_1" xmlns="http://www.w3.org/2000/svg" xmlns:xlink="http://www.w3.org/1999/xlink" x="0px" y="0px"
	 width="35px" height="35px" viewBox="0 0 35 35" enable-background="new 0 0 35 35" xml:space="preserve">
<path fill="#74747E" d="M17.5,0C7.836,0,0,7.836,0,17.5C0,27.166,7.836,35,17.5,35S35,27.166,35,17.5C35,7.836,27.164,0,17.5,0z
	 M24.459,13.933c0.008,0.154,0.01,0.308,0.01,0.463c0,4.745-3.61,10.215-10.215,10.215c-2.028,0-3.915-0.594-5.504-1.612
	c0.282,0.031,0.567,0.049,0.856,0.049c1.684,0,3.23-0.572,4.458-1.536c-1.57-0.03-2.897-1.068-3.353-2.492
	c0.219,0.04,0.443,0.063,0.675,0.063c0.328,0,0.645-0.045,0.945-0.126c-1.641-0.331-2.88-1.782-2.88-3.521c0-0.015,0-0.03,0-0.045
	c0.485,0.269,1.039,0.429,1.627,0.449c-0.963-0.643-1.597-1.743-1.597-2.989c0-0.658,0.177-1.275,0.486-1.805
	c1.77,2.172,4.417,3.602,7.4,3.751c-0.061-0.263-0.093-0.536-0.093-0.818c0-1.982,1.607-3.589,3.591-3.589
	c1.031,0,1.965,0.436,2.619,1.132c0.817-0.16,1.586-0.459,2.281-0.872c-0.27,0.839-0.838,1.542-1.579,1.986
	c0.727-0.085,1.419-0.28,2.062-0.563C25.77,12.794,25.16,13.426,24.459,13.933z"/>
</svg>
