<?xml version="1.0" encoding="utf-8"?>
<!-- Generator: Adobe Illustrator 16.0.4, SVG Export Plug-In . SVG Version: 6.00 Build 0)  -->
<!DOCTYPE svg PUBLIC "-//W3C//DTD SVG 1.1//EN" "http://www.w3.org/Graphics/SVG/1.1/DTD/svg11.dtd">
<svg version="1.1" id="Layer_1" xmlns="http://www.w3.org/2000/svg" xmlns:xlink="http://www.w3.org/1999/xlink" x="0px" y="0px"
	 width="35px" height="35px" viewBox="0 0 35 35" enable-background="new 0 0 35 35" xml:space="preserve">
<path fill="#74747E" d="M17.5,0C7.835,0,0,7.835,0,17.5C0,27.166,7.835,35,17.5,35C27.165,35,35,27.166,35,17.5
	C35,7.835,27.165,0,17.5,0z M21.25,17.506h-2.453c0,3.918,0,8.744,0,8.744h-3.634c0,0,0-4.776,0-8.744h-1.728v-3.089h1.728v-2
	c0-1.432,0.679-3.668,3.667-3.668l2.691,0.011v3c0,0-1.636,0-1.953,0c-0.319,0-0.771,0.158-0.771,0.841v1.816h2.771L21.25,17.506z"
	/>
</svg>
