<?xml version="1.0" encoding="utf-8"?>
<!-- Generator: Adobe Illustrator 16.0.4, SVG Export Plug-In . SVG Version: 6.00 Build 0)  -->
<!DOCTYPE svg PUBLIC "-//W3C//DTD SVG 1.1//EN" "http://www.w3.org/Graphics/SVG/1.1/DTD/svg11.dtd">
<svg version="1.1" id="Layer_1" xmlns="http://www.w3.org/2000/svg" xmlns:xlink="http://www.w3.org/1999/xlink" x="0px" y="0px"
	 width="25px" height="25px" viewBox="0 0 25 25" enable-background="new 0 0 25 25" xml:space="preserve">
<path fill="#ffffff" d="M12.5,0C5.596,0,0,5.597,0,12.5C0,19.404,5.596,25,12.5,25C19.403,25,25,19.404,25,12.5
	C25,5.597,19.403,0,12.5,0z M9.088,18.474h-2.68v-8.06h2.68V18.474z M7.748,9.312H7.73c-0.898,0-1.48-0.62-1.48-1.393
	c0-0.791,0.6-1.393,1.515-1.393c0.917,0,1.482,0.603,1.499,1.393C9.264,8.693,8.682,9.312,7.748,9.312z M18.75,18.474h-2.68v-4.312
	c0-1.084-0.388-1.824-1.357-1.824c-0.739,0-1.182,0.5-1.375,0.981c-0.071,0.173-0.089,0.41-0.089,0.653v4.501H10.57
	c0,0,0.035-7.304,0-8.06h2.679v1.142c0.357-0.551,0.993-1.331,2.416-1.331c1.762,0,3.085,1.15,3.085,3.626V18.474z"/>
</svg>
