<?xml version="1.0" encoding="utf-8"?>
<!-- Generator: Adobe Illustrator 16.0.4, SVG Export Plug-In . SVG Version: 6.00 Build 0)  -->
<!DOCTYPE svg PUBLIC "-//W3C//DTD SVG 1.1//EN" "http://www.w3.org/Graphics/SVG/1.1/DTD/svg11.dtd">
<svg version="1.1" id="Layer_1" xmlns="http://www.w3.org/2000/svg" xmlns:xlink="http://www.w3.org/1999/xlink" x="0px" y="0px"
	 width="220px" height="220px" viewBox="0 0 220 220" enable-background="new 0 0 220 220" xml:space="preserve">
<g>
	<path fill="#FDC66E" d="M7.012,110C7.012,53.119,53.122,7.011,110,7.011S212.989,53.119,212.989,110
		c0,56.876-46.11,102.988-102.989,102.988S7.012,166.876,7.012,110z"/>
	<circle fill="#FFFFFF" cx="110" cy="110" r="66.042"/>
	<path fill="#FDC66E" d="M110,220C49.347,220,0,170.654,0,109.999C0,49.345,49.347,0,110,0s110,49.345,110,109.999
		C220,170.654,170.654,220,110,220z M110,3.248c-58.863,0-106.752,47.888-106.752,106.75c0,58.865,47.889,106.753,106.752,106.753
		c58.864,0,106.751-47.889,106.751-106.753C216.752,51.136,168.864,3.248,110,3.248z"/>
	<circle fill="#FFFFFF" cx="189.73" cy="82.341" r="3.048"/>
	<circle fill="#FFFFFF" cx="193.848" cy="101.022" r="3.048"/>
	<circle fill="#FFFFFF" cx="193.163" cy="119.524" r="3.048"/>
	<circle fill="#FFFFFF" cx="188.25" cy="137.195" r="3.048"/>
	<circle fill="#FFFFFF" cx="31.595" cy="82.341" r="3.048"/>
	<circle fill="#FFFFFF" cx="27.476" cy="101.022" r="3.048"/>
	<circle fill="#FFFFFF" cx="28.162" cy="119.524" r="3.048"/>
	<circle fill="#FFFFFF" cx="33.074" cy="137.195" r="3.048"/>
	<g>
		<path fill="#FFFFFF" d="M173.95,150.223l12.627,8.396l-3.374,5.075c-1.688,2.536-4.371,2.798-6.435,1.426
			c-2.065-1.372-2.849-3.97-1.175-6.486l2.329-3.504l-5.018-3.335L173.95,150.223z M177.85,163.492
			c1.422,0.943,3.084,0.575,4.079-0.92l2.202-3.313l-4.808-3.197l-2.203,3.313C176.126,160.87,176.431,162.547,177.85,163.492z"/>
		<path fill="#FFFFFF" d="M159.745,167.618l3.348,1.434l5.314-5.355l-1.459-3.337l1.521-1.532l6.453,15.016l-1.648,1.662
			l-15.05-6.353L159.745,167.618z M172.735,173.306l-3.551-8.038l-4.529,4.566L172.735,173.306z"/>
		<path fill="#FFFFFF" d="M149.049,174.968l6.473,3.022l2.571-1.634l-3.232-5.083l1.593-1.012l8.132,12.793l-5.142,3.267
			c-2.339,1.487-4.977,1.064-6.477-1.294c-1.464-2.302-0.676-4.58,0.971-5.843l-6.768-3.022L149.049,174.968z M154.616,183.979
			c0.926,1.458,2.604,1.766,4.117,0.803l3.357-2.135l-3.108-4.891l-3.357,2.135C154.11,180.853,153.701,182.54,154.616,183.979z"/>
		<path fill="#FFFFFF" d="M141.522,178.519l4.996,12.52l4.456-1.778l0.622,1.562l-10.683,4.265l-0.623-1.564l4.477-1.785
			l-4.998-12.52L141.522,178.519z"/>
		<path fill="#FFFFFF" d="M122.58,183.741l11.01,10.159l-2.333-11.866l1.851-0.363l2.926,14.875l-1.895,0.372l-10.852-9.934
			l2.287,11.618l-1.852,0.365l-2.925-14.876L122.58,183.741z"/>
		<path fill="#FFFFFF" d="M117.405,184.323l0.479,15.156l-9.93,0.314l-0.054-1.682l8.044-0.254l-0.154-4.886l-7.885,0.249
			l-0.053-1.682l7.886-0.248l-0.166-5.228l-8.044,0.255l-0.053-1.683L117.405,184.323z"/>
		<path fill="#FFFFFF" d="M95.927,183.451l3.062,6.451l3.021,0.379l0.75-5.976l1.871,0.234l-1.884,15.041l-6.044-0.757
			c-2.751-0.346-4.516-2.354-4.167-5.125c0.339-2.707,2.397-3.96,4.472-3.884l-3.291-6.643L95.927,183.451z M94.475,193.941
			c-0.215,1.713,0.882,3.019,2.663,3.242l3.947,0.494l0.72-5.75l-3.946-0.495C96.077,191.211,94.687,192.249,94.475,193.941z"/>
		<path fill="#FFFFFF" d="M91.349,184.857l-1.519,1.05c-0.596-1.377-1.847-2.861-3.887-3.497c-2.583-0.806-3.841,0.327-4.193,1.456
			c-1.163,3.733,8.061,4.321,6.451,9.488c-0.745,2.387-3.386,3.374-6.251,2.48c-2.192-0.682-3.67-1.978-4.487-3.637l1.498-0.986
			c0.707,1.555,2.064,2.549,3.648,3.044c1.715,0.534,3.265-0.008,3.691-1.375c1.014-3.256-8.143-4.062-6.458-9.467
			c0.65-2.084,2.759-3.808,6.666-2.59C89.004,181.602,90.574,183.139,91.349,184.857z"/>
		<path fill="#FFFFFF" d="M69.379,173.301l-3.375,6.08l7.751,4.302l3.374-6.081l1.649,0.915l-7.355,13.256l-1.65-0.915l3.166-5.705
			l-7.751-4.3l-3.165,5.703l-1.649-0.915l7.354-13.255L69.379,173.301z"/>
		<path fill="#FFFFFF" d="M65.095,170.132l-9.338,11.95l-1.487-1.161l9.338-11.95L65.095,170.132z"/>
		<path fill="#FFFFFF" d="M60.858,166.865l-10.875,10.578l-4.25-4.369c-2.125-2.186-1.814-4.867-0.038-6.596
			c1.777-1.729,4.483-1.949,6.592,0.22l2.934,3.017l4.321-4.202L60.858,166.865z M47.059,167.88
			c-1.223,1.189-1.215,2.895,0.038,4.184l2.775,2.854l4.142-4.028l-2.775-2.854C49.986,166.746,48.282,166.69,47.059,167.88z"/>
		<path fill="#FFFFFF" d="M50.678,159.19l-1.841-0.148c0.411-1.442,0.383-3.383-0.793-5.169c-1.489-2.258-3.18-2.18-4.167-1.527
			c-3.265,2.152,3.501,8.448-1.017,11.427c-2.088,1.377-4.757,0.468-6.409-2.038c-1.264-1.917-1.588-3.855-1.169-5.655l1.784,0.186
			c-0.438,1.649-0.018,3.278,0.896,4.664c0.989,1.499,2.531,2.062,3.727,1.273c2.847-1.876-3.729-8.297,0.998-11.413
			c1.822-1.203,4.546-1.201,6.799,2.215C50.925,155.188,51.167,157.37,50.678,159.19z"/>
	</g>
	<g>
		<path fill="#FFFFFF" d="M46.413,68.473l-12.627-8.396l3.373-5.075c1.687-2.536,4.373-2.798,6.437-1.426
			c2.063,1.372,2.848,3.97,1.174,6.486l-2.329,3.503l5.017,3.335L46.413,68.473z M42.513,55.204c-1.42-0.943-3.084-0.576-4.079,0.92
			l-2.203,3.313l4.809,3.197l2.203-3.313C44.237,57.825,43.932,56.149,42.513,55.204z"/>
		<path fill="#FFFFFF" d="M60.618,51.077l-3.348-1.434l-5.315,5.355l1.46,3.337l-1.521,1.532l-6.454-15.016l1.649-1.662l15.05,6.353
			L60.618,51.077z M47.627,45.39l3.55,8.038l4.53-4.566L47.627,45.39z"/>
		<path fill="#FFFFFF" d="M71.313,43.728l-6.472-3.023l-2.57,1.634l3.231,5.083l-1.592,1.012l-8.133-12.792l5.141-3.267
			c2.34-1.488,4.978-1.064,6.478,1.294c1.464,2.301,0.676,4.58-0.971,5.843l6.768,3.022L71.313,43.728z M65.747,34.717
			c-0.926-1.458-2.603-1.765-4.118-0.803l-3.356,2.135l3.108,4.891l3.356-2.135C66.252,37.843,66.662,36.155,65.747,34.717z"/>
		<path fill="#FFFFFF" d="M78.84,40.177l-4.997-12.52l-4.455,1.778l-0.623-1.562l10.683-4.265l0.624,1.564l-4.476,1.786
			l4.997,12.519L78.84,40.177z"/>
		<path fill="#FFFFFF" d="M97.782,34.955L86.773,24.795l2.333,11.866l-1.851,0.363L84.329,22.15l1.896-0.373l10.85,9.934
			l-2.286-11.619l1.851-0.365l2.926,14.876L97.782,34.955z"/>
		<path fill="#FFFFFF" d="M102.958,34.373l-0.479-15.157l9.93-0.314l0.054,1.681l-8.044,0.254l0.154,4.886l7.885-0.249l0.053,1.681
			l-7.885,0.249l0.166,5.228l8.043-0.255l0.053,1.683L102.958,34.373z"/>
		<path fill="#FFFFFF" d="M124.436,35.245l-3.062-6.452l-3.021-0.379l-0.748,5.976l-1.871-0.235l1.884-15.041l6.042,0.757
			c2.752,0.346,4.518,2.354,4.168,5.125c-0.339,2.707-2.397,3.96-4.473,3.884l3.293,6.642L124.436,35.245z M125.889,24.754
			c0.214-1.713-0.882-3.018-2.664-3.242l-3.946-0.495l-0.72,5.75l3.945,0.495C124.287,27.485,125.676,26.446,125.889,24.754z"/>
		<path fill="#FFFFFF" d="M129.015,33.838l1.518-1.05c0.597,1.377,1.848,2.861,3.889,3.497c2.582,0.806,3.841-0.327,4.193-1.456
			c1.162-3.733-8.062-4.322-6.452-9.489c0.746-2.387,3.387-3.374,6.252-2.48c2.191,0.682,3.67,1.978,4.486,3.637l-1.498,0.986
			c-0.706-1.554-2.063-2.549-3.648-3.043c-1.715-0.535-3.264,0.008-3.691,1.375c-1.014,3.256,8.143,4.062,6.458,9.466
			c-0.65,2.084-2.76,3.808-6.666,2.59C131.358,37.094,129.79,35.557,129.015,33.838z"/>
		<path fill="#FFFFFF" d="M150.984,45.395l3.375-6.081l-7.752-4.301l-3.375,6.081l-1.649-0.915l7.355-13.255l1.649,0.915
			l-3.166,5.705l7.753,4.3l3.165-5.703l1.649,0.915l-7.355,13.255L150.984,45.395z"/>
		<path fill="#FFFFFF" d="M155.268,48.563l9.34-11.95l1.486,1.161l-9.338,11.95L155.268,48.563z"/>
		<path fill="#FFFFFF" d="M159.504,51.831l10.876-10.578l4.251,4.369c2.125,2.186,1.814,4.867,0.038,6.596
			c-1.778,1.729-4.483,1.949-6.593-0.22l-2.935-3.017l-4.321,4.203L159.504,51.831z M173.305,50.815
			c1.222-1.189,1.215-2.894-0.038-4.184l-2.775-2.853l-4.143,4.028l2.775,2.853C170.377,51.95,172.08,52.005,173.305,50.815z"/>
		<path fill="#FFFFFF" d="M169.686,59.505l1.84,0.149c-0.411,1.442-0.384,3.383,0.793,5.168c1.489,2.259,3.18,2.179,4.168,1.527
			c3.264-2.152-3.502-8.448,1.015-11.427c2.089-1.376,4.757-0.468,6.41,2.038c1.262,1.917,1.587,3.855,1.168,5.655l-1.784-0.186
			c0.438-1.649,0.018-3.278-0.896-4.664c-0.988-1.499-2.53-2.062-3.727-1.273c-2.847,1.876,3.729,8.297-0.997,11.414
			c-1.824,1.202-4.547,1.2-6.801-2.216C169.438,63.508,169.197,61.326,169.686,59.505z"/>
	</g>
	<g>
		<path fill="#FDC66E" d="M125.611,123.122c0.012-0.011,0.018-0.015,0.029-0.025c-3.625-4.852-6.463-8.216-9.206-11.464
			c-1.762-2.088-3.444-4.082-5.257-6.37c-3.8,3.743-11.215,8.146-17.072,8.146c-2.664,0-4.847-0.926-6.312-2.677
			c-0.674-0.806-1.551-2.049-1.386-3.54c0.213-1.927,1.924-3.237,4.758-5.407c2.532-1.939,5.971-4.583,10.255-8.927
			c-7.126-3.337-14.855-3.452-18.774-3.15c-3.884,0.298-14.717-6-14.717-6s-4.389,2.657-6.192,10.945
			c-1.8,8.288-0.178,10.167-0.178,10.167s10,4.366,13.92,14.748c2.616,6.934,5.035,8.334,10.139,14.355l9.08,11.664
			c1.381,1.799,4.126,2.164,5.924,0.783c1.846-1.417,2.196-4.075,0.78-5.924l-1.785-2.294c0.498-0.122,0.998-0.26,1.502-0.414
			l3.579,4.64c1.38,1.787,4.131,2.148,5.923,0.768c0.895-0.69,1.467-1.687,1.611-2.807c0.145-1.119-0.155-2.228-0.844-3.121
			l-2.23-2.891c0.416-0.219,0.831-0.441,1.244-0.668l2.839,3.682c1.382,1.79,4.126,2.152,5.925,0.762
			c1.842-1.42,2.184-4.078,0.764-5.923l-2.32-3.007c0.447-0.308,0.881-0.61,1.303-0.91l3.193,4.139
			c1.377,1.789,4.127,2.15,5.922,0.765c0.895-0.688,1.465-1.683,1.609-2.8c0.146-1.12-0.154-2.229-0.844-3.121L125.611,123.122z"/>
	</g>
	<path fill="#F7AA4E" d="M109.986,101.745c0.308-0.396,0.782-0.628,1.283-0.628c0.002,0,0.002,0,0.003,0
		c0.503,0.001,0.978,0.235,1.283,0.633c2.239,2.905,4.241,5.276,6.361,7.789c2.798,3.313,5.69,6.741,9.421,11.737
		c0.318,0.429,1.127,0.52,1.748,0.52c7.162,0,25.415-9.495,32.575-14.269c0.18-1.116,0.805-7.324-1.895-12.721
		c-1.624-3.248-4.745-5.968-6.557-7.01c-3.417,2.041-16.534,9.595-23.581,9.595c-0.002,0-0.002,0-0.002,0
		c-1.588,0-2.87-0.371-3.815-1.104c-5.416-4.2-9.77-6.998-13.409-6.998c-2.788,0-5.513,1.581-9.108,5.285
		c-4.709,4.854-8.588,7.825-11.155,9.79c-1.693,1.295-3.443,2.637-3.504,3.186c-0.001,0.011-0.023,0.293,0.649,1.097
		c0.852,1.019,2.102,1.513,3.822,1.513C99.531,110.16,107.358,105.134,109.986,101.745z"/>
</g>
</svg>
