<?xml version="1.0" encoding="utf-8"?>
<!-- Generator: Adobe Illustrator 16.0.4, SVG Export Plug-In . SVG Version: 6.00 Build 0)  -->
<!DOCTYPE svg PUBLIC "-//W3C//DTD SVG 1.1//EN" "http://www.w3.org/Graphics/SVG/1.1/DTD/svg11.dtd">
<svg version="1.1" id="Layer_1" xmlns="http://www.w3.org/2000/svg" xmlns:xlink="http://www.w3.org/1999/xlink" x="0px" y="0px"
	 width="140px" height="140px" viewBox="0 0 140 140" enable-background="new 0 0 140 140" xml:space="preserve">
<g>
	<path fill="#FEC66D" d="M91.941,41.598c-7.515,2.312-12.735,5.806-14.471,10.533c-0.675,1.835-0.997,3.715-0.835,5.083
		c3.366-3.647,8.438-7.483,16.004-11.215c-0.237,0.149-0.464,0.312-0.698,0.465c-15.333,8.923-19.84,17.079-20.666,22.797
		c-1.812-4.989-4.74-9.725-9.425-13.132c-3.706-2.694-6.413-4.287-8.355-5.228c2.789,0.531,8.122,2.316,13.623,8.317
		c1.235,1.347,2.212,2.997,2.989,4.822c0.217-5.998-0.485-20.536-11.894-24.808c-10.668-3.996-14.617-12.359-14.617-12.359
		s-3.19,11.56-0.299,24.981c2.546,11.819,14.208,14.41,24.154,18.182c0.972,2.687,1.69,5.672,2.028,8.979
		c0.135,1.324,0.22,2.593,0.285,3.772H54.069c-0.952,0-1.725,0.771-1.725,1.724l0.688,4.832c0,0.952,0.773,1.724,1.726,1.724h0.565
		l3.095,18.585c0.191,1.146,0.119,2.153,1.846,3.286c1.403,0.92,4.493,2.634,10.452,2.634h0.055c5.96,0,9.049-1.714,10.452-2.634
		c1.727-1.133,1.656-2.14,1.846-3.286l3.096-18.585h0.565c0.953,0,1.726-0.771,1.726-1.724l0.688-4.832
		c0-0.952-0.771-1.724-1.726-1.724H73.906c-0.122-2.044-0.359-4.233-0.761-6.473c0.198-3.103,0.806-7.382,2.51-11.467
		c0.614-1.475,1.753-3.474,3.313-5.678c5.913-1.107,11.572-3.417,15.395-8.277c4.937-6.278,4.972-15.07,4.972-15.07
		S98.596,39.55,91.941,41.598z"/>
	<path fill="#FEC66D" d="M70,140.002c-38.598,0-70-31.402-70-70.001S31.402,0,70,0c38.599,0,70.001,31.402,70.001,70.001
		S108.599,140.002,70,140.002z M70,9.412c-33.408,0-60.588,27.18-60.588,60.589S36.592,130.59,70,130.59
		c33.409,0,60.589-27.18,60.589-60.589S103.409,9.412,70,9.412z"/>
</g>
</svg>
