<?xml version="1.0" encoding="utf-8"?>
<!-- Generator: Adobe Illustrator 16.0.4, SVG Export Plug-In . SVG Version: 6.00 Build 0)  -->
<!DOCTYPE svg PUBLIC "-//W3C//DTD SVG 1.1//EN" "http://www.w3.org/Graphics/SVG/1.1/DTD/svg11.dtd">
<svg version="1.1" id="Layer_1" xmlns="http://www.w3.org/2000/svg" xmlns:xlink="http://www.w3.org/1999/xlink" x="0px" y="0px"
	 width="140px" height="140px" viewBox="0 0 140 140" enable-background="new 0 0 140 140" xml:space="preserve">
<g>
	<g>
		<path fill="#6CC6EC" d="M60.323,87.989c-1.072,0-2.169,0.46-3.01,1.261l-6.445,5.855c-0.792,0.755-1.286,1.739-1.381,2.766
			c-0.093,0.994,0.204,1.907,0.835,2.569c0.591,0.62,1.427,0.962,2.355,0.962c1.072,0,2.17-0.46,3.01-1.261l6.444-5.856
			c0.792-0.754,1.286-1.74,1.381-2.764c0.093-0.994-0.204-1.907-0.836-2.571C62.086,88.33,61.25,87.989,60.323,87.989z"/>
		<path fill="#6CC6EC" d="M55.038,80.518c-1.099,0-2.218,0.434-3.12,1.195c-0.132,0.154-0.27,0.305-0.421,0.449l-6.445,5.855
			c-0.186,0.178-0.386,0.337-0.591,0.486c-0.816,0.826-1.334,1.873-1.436,2.969c-0.104,1.113,0.229,2.137,0.938,2.88
			c0.663,0.697,1.601,1.08,2.64,1.08c1.199,0,2.425-0.513,3.363-1.408l7.108-6.458c0.884-0.842,1.436-1.942,1.543-3.088
			c0.104-1.115-0.229-2.139-0.938-2.882C57.015,80.9,56.078,80.518,55.038,80.518z"/>
		<path fill="#6CC6EC" d="M66.795,95.58c-0.448-0.469-1.091-0.729-1.812-0.729c-0.898,0-1.828,0.396-2.551,1.085l-5.496,5.004
			c-1.348,1.286-1.602,3.233-0.555,4.334c0.448,0.469,1.091,0.729,1.812,0.729c0.898,0,1.828-0.396,2.551-1.085l5.497-5.005
			C67.589,98.628,67.842,96.681,66.795,95.58z"/>
		<path fill="#6CC6EC" d="M48.887,75.002c-1.073,0-2.17,0.46-3.011,1.263l-6.444,5.856c-0.792,0.755-1.286,1.739-1.381,2.765
			c-0.093,0.994,0.204,1.908,0.835,2.57c0.591,0.62,1.428,0.962,2.355,0.962c0.849,0,1.708-0.298,2.448-0.815
			c0.027-0.026,0.051-0.056,0.078-0.082l7.107-6.458c0.043-0.042,0.09-0.077,0.134-0.116c1.322-1.539,1.464-3.69,0.233-4.981
			C50.65,75.344,49.814,75.002,48.887,75.002z"/>
		<path fill="#6CC6EC" d="M68.22,99.062c-0.263,0.616-0.646,1.207-1.177,1.713l-3.412,3.107l6.08,6.131
			c0.633,0.639,1.478,0.989,2.375,0.989c0.889,0,1.724-0.344,2.354-0.969c1.223-1.212,1.296-3.136,0.243-4.453L68.22,99.062z"/>
	</g>
	<g>
		<path fill="#6CC6EC" d="M69.966,140C31.387,140,0,108.599,0,70S31.387,0,69.966,0s69.966,31.402,69.966,70S108.545,140,69.966,140
			z M69.966,9.412C36.574,9.412,9.407,36.592,9.407,70s27.167,60.589,60.559,60.589c33.393,0,60.56-27.181,60.56-60.589
			S103.358,9.412,69.966,9.412z"/>
		<g>
			<path fill="#6CC6EC" d="M89.306,79.356c-1.354-1.2-2.982-2.681-5.401-5.043c-1.385-1.352-2.742-2.736-4.055-4.077
				c-1.573-1.606-3.167-3.23-4.625-4.592c-0.691-0.608-1.373-1.205-2.031-1.778c-1.212-0.969-2.235-1.579-2.934-1.579
				c-0.199,0-0.43,0.036-0.656,0.465c-2.857,5.429-7.669,7.859-11.171,7.859c-2.058,0-3.669-0.84-4.423-2.306
				c-0.749-1.454-0.983-4.106,2.144-8.48c4.762-6.658,8.398-9.978,10.685-11.614c-5.213-1.684-10.116-0.604-14.712,0.408
				c-3.437,0.758-7.292-1.508-11.692-5.406c-1.263-1.118-2.64-1.383-5.154,0.126c-3.092,1.855-12.195,9.806-14.458,18.669
				c-0.492,1.926-0.289,4.279,1.509,5.091c9.178,4.148,8.675,8.424,14.333,13.077c0.581,0.476,1.133,0.934,1.676,1.383
				c0.094-0.103,0.19-0.206,0.292-0.304l6.444-5.856c1.047-0.997,2.441-1.575,3.812-1.575c1.252,0,2.391,0.471,3.206,1.325
				c1.148,1.207,1.436,2.947,0.93,4.569c0.652-0.244,1.335-0.381,2.015-0.381c1.365,0,2.604,0.512,3.492,1.445
				c0.946,0.992,1.394,2.343,1.257,3.802c-0.078,0.843-0.351,1.66-0.783,2.406c0.433-0.116,0.876-0.181,1.319-0.181
				c1.252,0,2.391,0.47,3.206,1.325c0.87,0.913,1.28,2.153,1.155,3.49c-0.071,0.759-0.313,1.493-0.697,2.166
				c0.33-0.075,0.664-0.119,0.996-0.119c1.046,0,1.992,0.389,2.664,1.095c0.62,0.65,0.919,1.498,0.946,2.389l6.981,7.04
				c0.136,0.138,0.26,0.282,0.376,0.431l3.692,3.724c0.792,0.798,1.847,1.237,2.971,1.237c1.111,0,2.158-0.432,2.946-1.212
				c0.795-0.788,1.234-1.837,1.239-2.955c0.004-0.783-0.219-1.528-0.617-2.182L72.946,89.896c0.3-0.493,0.602-0.99,0.907-1.494
				l12.846,12.955c0.286,0.288,0.536,0.604,0.752,0.938l1.114,1.124c0.729,0.734,1.699,1.14,2.731,1.14
				c1.022,0,1.984-0.396,2.71-1.116c1.506-1.494,1.516-3.934,0.021-5.441l-4.507-4.547L77.738,81.955
				c0.326-0.544,0.641-1.071,0.946-1.584c0.156,0.125,0.316,0.244,0.458,0.39l11.479,11.575l3.652,3.564
				c0.788,0.769,1.825,1.191,2.924,1.191c1.138,0,2.201-0.448,2.995-1.263c0.781-0.799,1.204-1.854,1.19-2.973
				c-0.014-1.119-0.463-2.164-1.262-2.943L89.306,79.356z"/>
			<path fill="#6CC6EC" d="M57.43,60.74c-2.051,2.868-2.79,5.365-2.026,6.85c0.651,1.265,2.177,1.454,3.028,1.454
				c2.932,0,7.244-2.197,9.783-7.021c0.567-1.078,1.424-1.304,2.044-1.304c2.463,0,6.103,3.716,10.711,8.42
				c1.307,1.334,2.657,2.712,4.028,4.052c3.096,3.021,4.89,4.593,6.47,5.98c1.271,1.114,2.471,2.166,4.143,3.788
				c0.486,0.471,0.792,0.471,0.893,0.471c0.895,0,2.201-1.539,3.713-3.321c2.833-3.338,7.111-8.379,14.673-11.012
				c3.95-1.375,3.743-3.183,3.483-5.469c-0.029-0.266-0.06-0.532-0.083-0.794c-0.747-8.606-8.275-17.641-12.139-20.564
				c-0.641-0.485-1.17-0.712-1.666-0.712c-0.892,0-1.974,0.74-3.403,1.784l-0.764,0.561c-3.693,2.718-6.134,4.512-12.395,4.512
				c-1.355,0-2.857-0.082-4.592-0.25c-1.945-0.189-4.048-0.286-6.252-0.286c-3.738,0-6.616,0.279-7.108,0.33
				C69.5,48.376,64.962,50.207,57.43,60.74z"/>
		</g>
	</g>
</g>
</svg>
