<?xml version="1.0" encoding="utf-8"?>
<!-- Generator: Adobe Illustrator 16.0.4, SVG Export Plug-In . SVG Version: 6.00 Build 0)  -->
<!DOCTYPE svg PUBLIC "-//W3C//DTD SVG 1.1//EN" "http://www.w3.org/Graphics/SVG/1.1/DTD/svg11.dtd">
<svg version="1.1" id="Layer_1" xmlns="http://www.w3.org/2000/svg" xmlns:xlink="http://www.w3.org/1999/xlink" x="0px" y="0px"
	 width="220px" height="220px" viewBox="0 0 220 220" enable-background="new 0 0 220 220" xml:space="preserve">
<g>
	<path fill="#FDC66E" d="M7.012,110C7.012,53.119,53.122,7.011,110,7.011S212.989,53.119,212.989,110
		c0,56.875-46.11,102.991-102.989,102.991S7.012,166.875,7.012,110z"/>
	<circle fill="#FFFFFF" cx="110" cy="110" r="66.042"/>
	<g>
		<path fill="#FDC66E" d="M90.169,118.498V95.704c-3.442,0-10.966,0-12.575,0c-2.104,0-2.542,1.437-3.462,3.752l-2.492,7.514
			c0,0-3.457,2.089-7.207,4.344c-1.205,0.721-1.259,1.432-1.259,2.45c0,4.06-0.009,13.044-0.009,13.044
			c0,1.908,1.549,2.424,3.463,2.424h5.538h0.228c0.934-3.151,3.853-5.459,7.302-5.459c3.45,0,6.369,2.308,7.305,5.459h1.439h26.607
			c0.907-3.195,3.846-5.545,7.327-5.545c3.409,0,6.301,2.256,7.271,5.348c0.971-3.092,3.863-5.348,7.271-5.348
			c3.48,0,6.421,2.35,7.33,5.545h5.479c0.959,0,1.732-0.774,1.732-1.73v-5.887H93.286C91.568,121.615,90.169,120.217,90.169,118.498
			z M87.69,106.956H74.589l2.656-8.196H87.69V106.956z"/>
		<path fill="#F8AB50" d="M153.557,84.928H94.691c-0.957,0-1.731,0.774-1.731,1.73v7.33v22.795c0,0.391,0.134,0.746,0.35,1.037
			c0.099,0.129,0.217,0.25,0.348,0.346c0.29,0.215,0.646,0.348,1.033,0.348h57.473h1.393c0.958,0,1.732-0.773,1.732-1.73V86.658
			C155.289,85.702,154.515,84.928,153.557,84.928z"/>
		<g>
			<path fill="#FDC66E" d="M122.52,126.086c-3.056,0-5.541,2.488-5.541,5.543c0,3.057,2.485,5.543,5.541,5.543
				c3.059,0,5.545-2.486,5.545-5.543C128.064,128.574,125.578,126.086,122.52,126.086z"/>
		</g>
		<g>
			<path fill="#FDC66E" d="M136.844,126.086c-3.056,0-5.541,2.488-5.541,5.543c0,3.057,2.485,5.543,5.541,5.543
				c3.059,0,5.545-2.486,5.545-5.543C142.389,128.574,139.902,126.086,136.844,126.086z"/>
		</g>
		<g>
			<path fill="#FDC66E" d="M80.049,126.163c-3.056,0-5.543,2.489-5.543,5.543c0,3.055,2.487,5.544,5.543,5.544
				c3.058,0,5.544-2.489,5.544-5.544C85.593,128.652,83.106,126.163,80.049,126.163z"/>
		</g>
	</g>
	<path fill="#FDC66E" d="M110,220C49.347,220,0,170.654,0,109.998C0,49.345,49.347,0,110,0s110,49.345,110,109.999
		C220,170.654,170.654,220,110,220z M110,3.248c-58.863,0-106.752,47.888-106.752,106.75c0,58.863,47.889,106.754,106.752,106.754
		c58.864,0,106.751-47.891,106.751-106.754C216.752,51.135,168.864,3.248,110,3.248z"/>
	<circle fill="#FFFFFF" cx="189.73" cy="82.341" r="3.048"/>
	<circle fill="#FFFFFF" cx="193.848" cy="101.021" r="3.048"/>
	<circle fill="#FFFFFF" cx="193.163" cy="119.523" r="3.048"/>
	<circle fill="#FFFFFF" cx="188.25" cy="137.194" r="3.048"/>
	<circle fill="#FFFFFF" cx="31.595" cy="82.341" r="3.048"/>
	<circle fill="#FFFFFF" cx="27.476" cy="101.021" r="3.048"/>
	<circle fill="#FFFFFF" cx="28.162" cy="119.523" r="3.048"/>
	<circle fill="#FFFFFF" cx="33.074" cy="137.194" r="3.048"/>
	<g>
		<path fill="#FFFFFF" d="M171.731,154.094l11.834,9.471l-3.237,4.045c-2.954,3.691-7.428,4.01-10.782,1.326
			c-3.371-2.697-4.006-7.105-1.051-10.797L171.731,154.094z M170.768,167.41c2.557,2.045,5.905,2.078,8.248-0.85l2.058-2.574
			l-9.207-7.369l-2.06,2.572C167.507,162.064,168.229,165.379,170.768,167.41z"/>
		<path fill="#FFFFFF" d="M161.026,166.227l10.049,11.355l-1.412,1.25l-10.05-11.355L161.026,166.227z"/>
		<path fill="#FFFFFF" d="M158.632,171.342l-0.162,1.84c-1.438-0.422-3.381-0.41-5.175,0.754c-2.27,1.469-2.204,3.162-1.562,4.152
			c2.129,3.283,8.479-3.434,11.421,1.107c1.36,2.1,0.43,4.762-2.089,6.393c-1.927,1.25-3.866,1.561-5.665,1.127l0.2-1.783
			c1.646,0.451,3.279,0.045,4.672-0.859c1.507-0.977,2.081-2.518,1.304-3.719c-1.855-2.861-8.329,3.664-11.407-1.088
			c-1.188-1.83-1.166-4.555,2.27-6.781C154.632,171.062,156.817,170.84,158.632,171.342z"/>
		<path fill="#FFFFFF" d="M142.592,178.066l5.201,12.447l4.43-1.852l0.648,1.553l-10.619,4.438l-0.65-1.551l4.451-1.861
			l-5.203-12.447L142.592,178.066z"/>
		<path fill="#FFFFFF" d="M126.085,183.127l5.104,5.006l2.969-0.689l-1.361-5.873l1.84-0.424l3.422,14.775l-5.938,1.377
			c-2.702,0.625-5.053-0.65-5.684-3.375c-0.615-2.662,0.885-4.549,2.859-5.193l-5.383-5.1L126.085,183.127z M128.344,193.482
			c0.389,1.682,1.868,2.531,3.619,2.125l3.876-0.896l-1.308-5.65l-3.877,0.898C128.904,190.365,127.958,191.82,128.344,193.482z"/>
		<path fill="#FFFFFF" d="M121.042,183.834l1.702,15.072l-1.877,0.213l-1.701-15.072L121.042,183.834z"/>
		<path fill="#FFFFFF" d="M115.189,184.453l0.197,15.154l-6.749,0.09c-2.636,0.033-4.27-1.535-4.299-3.811
			c-0.025-1.906,1.23-3.197,2.613-3.512c-1.617-0.229-2.979-1.867-3.003-3.686c-0.032-2.432,1.56-4.113,4.333-4.148L115.189,184.453
			z M105.906,188.867c0.018,1.387,0.989,2.602,2.829,2.576l4.658-0.061l-0.068-5.227l-4.657,0.062
			C106.917,186.242,105.884,187.254,105.906,188.867z M106.29,195.59c0.018,1.363,0.94,2.441,2.646,2.42l4.545-0.059l-0.065-4.887
			l-4.543,0.061C107.167,193.146,106.271,194.203,106.29,195.59z"/>
		<path fill="#FFFFFF" d="M100.017,190.123l-1.689,9.119l-1.877-0.348l1.68-9.076c0.504-2.727-0.629-4.715-3.379-5.223
			c-2.749-0.512-4.542,0.938-5.048,3.662l-1.68,9.076l-1.878-0.346l1.685-9.098c0.688-3.711,3.182-5.699,7.228-4.951
			C99.083,183.686,100.696,186.457,100.017,190.123z"/>
		<path fill="#FFFFFF" d="M83.113,179.961l-4.82,12.592l4.481,1.717l-0.602,1.57l-10.746-4.115l0.601-1.568l4.502,1.721l4.82-12.594
			L83.113,179.961z"/>
		<path fill="#FFFFFF" d="M74.76,176.268l-7.207,13.34l-1.66-0.898l7.207-13.34L74.76,176.268z"/>
		<path fill="#FFFFFF" d="M65.831,180.287c-2.748,3.537-7.221,4.328-10.76,1.578c-3.54-2.748-3.899-7.289-1.151-10.83
			c2.749-3.537,7.238-4.312,10.777-1.564C68.237,172.219,68.579,176.746,65.831,180.287z M55.464,172.236
			c-2.176,2.803-2.038,6.221,0.639,8.301c2.694,2.092,6.006,1.352,8.182-1.451c2.163-2.785,2.075-6.195-0.621-8.287
			C60.988,168.721,57.627,169.451,55.464,172.236z"/>
		<path fill="#FFFFFF" d="M49.959,154.451l-4.03,14.439l9.505-7.49l1.168,1.484l-11.917,9.389l-1.196-1.52l3.904-14.195
			l-9.309,7.334l-1.168-1.482l11.917-9.388L49.959,154.451z"/>
	</g>
	<g>
		<path fill="#FFFFFF" d="M48.631,64.6l-11.834-9.47l3.237-4.046c2.954-3.69,7.428-4.009,10.782-1.326
			c3.372,2.698,4.006,7.106,1.052,10.797L48.631,64.6z M49.595,51.285c-2.555-2.044-5.905-2.078-8.248,0.85l-2.059,2.574
			l9.208,7.368l2.059-2.572C52.855,56.631,52.132,53.316,49.595,51.285z"/>
		<path fill="#FFFFFF" d="M59.337,52.468L49.288,41.112l1.412-1.25L60.75,51.218L59.337,52.468z"/>
		<path fill="#FFFFFF" d="M61.73,47.353l0.163-1.84c1.438,0.422,3.381,0.409,5.175-0.753c2.27-1.47,2.205-3.162,1.562-4.153
			c-2.127-3.283-8.477,3.434-11.42-1.107c-1.36-2.1-0.43-4.761,2.089-6.393c1.927-1.25,3.867-1.559,5.665-1.126l-0.2,1.783
			c-1.646-0.451-3.279-0.043-4.671,0.859c-1.508,0.977-2.083,2.516-1.304,3.718c1.854,2.862,8.329-3.664,11.407,1.088
			c1.188,1.832,1.165,4.556-2.27,6.781C65.731,47.632,63.546,47.855,61.73,47.353z"/>
		<path fill="#FFFFFF" d="M77.771,40.628l-5.202-12.446l-4.429,1.851l-0.65-1.553l10.621-4.439l0.649,1.553l-4.45,1.86l5.202,12.447
			L77.771,40.628z"/>
		<path fill="#FFFFFF" d="M94.278,35.568l-5.104-5.003l-2.968,0.688l1.359,5.87l-1.839,0.427l-3.422-14.776l5.938-1.375
			c2.703-0.626,5.052,0.65,5.684,3.375c0.615,2.66-0.885,4.547-2.859,5.191l5.382,5.102L94.278,35.568z M92.02,25.213
			c-0.389-1.683-1.87-2.531-3.62-2.125l-3.877,0.897l1.308,5.649l3.877-0.897C91.458,28.332,92.405,26.875,92.02,25.213z"/>
		<path fill="#FFFFFF" d="M99.322,34.861l-1.703-15.073l1.876-0.213l1.702,15.075L99.322,34.861z"/>
		<path fill="#FFFFFF" d="M105.174,34.244l-0.198-15.155L111.725,19c2.636-0.035,4.271,1.535,4.299,3.808
			c0.025,1.908-1.23,3.197-2.613,3.511c1.617,0.229,2.98,1.87,3.004,3.687c0.031,2.432-1.561,4.112-4.332,4.147L105.174,34.244z
			 M114.073,23.105c-0.018-1.364-0.94-2.442-2.646-2.42l-4.544,0.059l0.064,4.886l4.543-0.06
			C113.196,25.548,114.092,24.492,114.073,23.105z M114.457,29.827c-0.02-1.386-0.99-2.601-2.829-2.575l-4.658,0.06l0.068,5.227
			l4.657-0.062C113.445,32.455,114.479,31.441,114.457,29.827z"/>
		<path fill="#FFFFFF" d="M120.346,28.572l1.689-9.119l1.877,0.348l-1.681,9.075c-0.505,2.728,0.63,4.718,3.378,5.226
			c2.75,0.509,4.544-0.939,5.05-3.665l1.679-9.075l1.879,0.347l-1.685,9.097c-0.687,3.711-3.183,5.7-7.228,4.95
			C121.279,35.011,119.667,32.239,120.346,28.572z"/>
		<path fill="#FFFFFF" d="M137.25,38.735l4.82-12.592l-4.48-1.716l0.601-1.572l10.745,4.114l-0.6,1.571l-4.504-1.724l-4.818,12.594
			L137.25,38.735z"/>
		<path fill="#FFFFFF" d="M145.602,42.427l7.207-13.338l1.66,0.896l-7.207,13.339L145.602,42.427z"/>
		<path fill="#FFFFFF" d="M154.532,38.408c2.748-3.538,7.221-4.328,10.761-1.58c3.539,2.749,3.897,7.291,1.151,10.831
			c-2.75,3.538-7.238,4.313-10.778,1.565C152.127,46.476,151.783,41.948,154.532,38.408z M164.899,46.458
			c2.176-2.802,2.036-6.222-0.641-8.301c-2.693-2.092-6.005-1.351-8.181,1.451c-2.163,2.785-2.074,6.195,0.62,8.287
			C159.374,49.975,162.736,49.243,164.899,46.458z"/>
		<path fill="#FFFFFF" d="M170.404,64.243l4.029-14.438l-9.504,7.489l-1.169-1.483l11.917-9.389l1.197,1.52l-3.903,14.194
			l9.307-7.333l1.169,1.482l-11.917,9.387L170.404,64.243z"/>
	</g>
</g>
</svg>
