<?xml version="1.0" encoding="utf-8"?>
<!-- Generator: Adobe Illustrator 16.0.4, SVG Export Plug-In . SVG Version: 6.00 Build 0)  -->
<!DOCTYPE svg PUBLIC "-//W3C//DTD SVG 1.1//EN" "http://www.w3.org/Graphics/SVG/1.1/DTD/svg11.dtd">
<svg version="1.1" id="Layer_1" xmlns="http://www.w3.org/2000/svg" xmlns:xlink="http://www.w3.org/1999/xlink" x="0px" y="0px"
	 width="140px" height="140px" viewBox="0 0 140 140" enable-background="new 0 0 140 140" xml:space="preserve">
<g>
	<path fill="#F15A5C" d="M70,140.002c-38.598,0-70-31.402-70-70.001S31.402,0,70,0c38.6,0,70.001,31.402,70.001,70.001
		S108.6,140.002,70,140.002z M70,9.412c-33.408,0-60.588,27.18-60.588,60.589S36.592,130.59,70,130.59
		c33.409,0,60.589-27.18,60.589-60.589S103.409,9.412,70,9.412z"/>
	<g>
		<path fill="#F15A5C" d="M52.274,77.464V56.452c-3.173,0-10.108,0-11.591,0c-1.939,0-2.344,1.326-3.191,3.459l-2.297,6.927
			c0,0-3.187,1.925-6.644,4.003c-1.11,0.666-1.161,1.319-1.161,2.259c0,3.742-0.009,12.024-0.009,12.024
			c0,1.759,1.428,2.233,3.192,2.233h5.105h0.21c0.861-2.904,3.551-5.031,6.731-5.031s5.871,2.127,6.733,5.031h1.327h24.526
			c0.837-2.945,3.546-5.11,6.754-5.11c3.144,0,5.809,2.079,6.704,4.93c0.893-2.851,3.56-4.93,6.701-4.93
			c3.208,0,5.919,2.165,6.757,5.11h5.052c0.883,0,1.596-0.713,1.596-1.595v-5.427H55.147C53.564,80.337,52.274,79.048,52.274,77.464
			z M49.989,66.825H37.913l2.448-7.555h9.628V66.825z"/>
		<path fill="#F15A5C" d="M110.706,46.519H56.442c-0.882,0-1.596,0.713-1.596,1.595v6.757v21.012c0,0.36,0.124,0.689,0.323,0.956
			c0.091,0.12,0.2,0.231,0.32,0.319c0.268,0.198,0.595,0.321,0.953,0.321h52.978h1.286c0.882,0,1.596-0.714,1.596-1.597V48.114
			C112.302,47.232,111.588,46.519,110.706,46.519z"/>
		<g>
			<path fill="#F15A5C" d="M82.096,84.458c-2.817,0-5.109,2.294-5.109,5.109c0,2.819,2.292,5.109,5.109,5.109
				c2.818,0,5.111-2.29,5.111-5.109C87.207,86.752,84.914,84.458,82.096,84.458z"/>
		</g>
		<g>
			<path fill="#F15A5C" d="M95.3,84.458c-2.817,0-5.109,2.294-5.109,5.109c0,2.819,2.292,5.109,5.109,5.109
				c2.818,0,5.11-2.29,5.11-5.109C100.41,86.752,98.118,84.458,95.3,84.458z"/>
		</g>
		<g>
			<path fill="#F15A5C" d="M42.945,84.53c-2.816,0-5.109,2.293-5.109,5.109s2.293,5.11,5.109,5.11c2.818,0,5.111-2.294,5.111-5.11
				S45.764,84.53,42.945,84.53z"/>
		</g>
	</g>
</g>
</svg>
