<?xml version="1.0" encoding="utf-8"?>
<!-- Generator: Adobe Illustrator 16.0.4, SVG Export Plug-In . SVG Version: 6.00 Build 0)  -->
<!DOCTYPE svg PUBLIC "-//W3C//DTD SVG 1.1//EN" "http://www.w3.org/Graphics/SVG/1.1/DTD/svg11.dtd">
<svg version="1.1" id="Layer_1" xmlns="http://www.w3.org/2000/svg" xmlns:xlink="http://www.w3.org/1999/xlink" x="0px" y="0px"
	 width="140px" height="140px" viewBox="0 0 140 140" enable-background="new 0 0 140 140" xml:space="preserve">
<g>
	<path fill="#FEC66D" d="M70,140.002c-38.598,0-70-31.403-70-70.002C0,31.402,31.402,0,70,0c38.599,0,70.001,31.402,70.001,70
		C140.001,108.599,108.599,140.002,70,140.002z M70,9.412C36.592,9.412,9.412,36.592,9.412,70c0,33.41,27.18,60.59,60.588,60.59
		c33.409,0,60.589-27.18,60.589-60.59C130.589,36.592,103.409,9.412,70,9.412z"/>
	<path fill="#FEC66D" d="M96.156,68.566c-0.003-5.017-1.522-6.56-4.769-7.03l-0.01-14.998c-0.007-10.542-9.549-19.114-21.274-19.114
		c-0.004,0-0.01,0-0.015,0c-5.598,0.003-10.881,1.94-14.876,5.455c-4.124,3.628-6.393,8.488-6.39,13.684l0.005,7.373l7.059-0.004
		l-0.004-7.373c-0.002-3.136,1.416-6.112,3.993-8.379c2.707-2.381,6.335-3.694,10.219-3.696c0.003,0,0.006,0,0.01,0
		c7.836,0,14.212,5.408,14.216,12.059l0.009,14.79L54.964,61.35c-7.503,0.005-10.895-0.257-10.891,7.247
		c0,0,0.008,12.255,0.013,22.212c0.006,9.957,9.07,20.552,26.281,20.543c17.21-0.011,25.808-10.603,25.802-20.573
		C96.164,80.809,96.156,68.566,96.156,68.566z M73.89,85.565l0.006,10.428c0.002,2.078-1.684,3.765-3.762,3.767
		c-2.08,0.001-3.766-1.684-3.768-3.763L66.36,85.57c-2.146-1.284-3.588-3.622-3.589-6.304c-0.002-4.06,3.287-7.352,7.347-7.354
		c4.059-0.003,7.353,3.286,7.354,7.346C77.474,81.939,76.034,84.28,73.89,85.565z"/>
</g>
</svg>
