<?xml version="1.0" encoding="utf-8"?>
<!-- Generator: Adobe Illustrator 16.0.4, SVG Export Plug-In . SVG Version: 6.00 Build 0)  -->
<!DOCTYPE svg PUBLIC "-//W3C//DTD SVG 1.1//EN" "http://www.w3.org/Graphics/SVG/1.1/DTD/svg11.dtd">
<svg version="1.1" id="Layer_1" xmlns="http://www.w3.org/2000/svg" xmlns:xlink="http://www.w3.org/1999/xlink" x="0px" y="0px"
	 width="175px" height="58px" viewBox="0 0 175 58" enable-background="new 0 0 175 58" xml:space="preserve">
<g>
	<path fill="#F7BA3F" d="M30.091,15.902V1.283h-5.322V0.046h12.06v1.236h-5.322v14.619H30.091z"/>
	<path fill="#F7BA3F" d="M52.125,15.902V8.366H41.799v7.536h-1.392V0.046h1.392v7.083h10.326V0.046h1.393v15.855H52.125z"/>
	<path fill="#F7BA3F" d="M57.744,15.902V0.046h10.326v1.236h-8.935v5.871h8.764V8.39h-8.764v6.276h8.935v1.236H57.744z"/>
</g>
<g>
	<path fill="#F7BA3F" d="M37.851,36.703l-2.856-10.887l-2.832,10.887h-3.687l-4.663-15.855h3.882l2.856,11.458l3.1-11.458h2.71
		l3.076,11.458l2.856-11.458h3.882l-4.639,15.855H37.851z"/>
	<path fill="#F7BA3F" d="M58.166,36.703l-1.025-2.686h-6.981l-1.025,2.686h-3.931l6.273-15.855h4.346l6.273,15.855H58.166z
		 M53.65,24.224l-2.539,6.823h5.077L53.65,24.224z"/>
	<path fill="#F7BA3F" d="M63.538,34.469l1.903-2.639c1.148,1.166,2.93,2.163,5.175,2.163c1.928,0,2.832-0.834,2.832-1.759
		c0-2.757-9.374-0.832-9.374-6.798c0-2.639,2.343-4.826,6.176-4.826c2.587,0,4.736,0.761,6.347,2.211l-1.929,2.52
		c-1.318-1.188-3.076-1.735-4.736-1.735c-1.464,0-2.295,0.618-2.295,1.568c0,2.497,9.351,0.809,9.351,6.727
		c0,2.902-2.147,5.088-6.518,5.088C67.321,36.988,65.075,35.967,63.538,34.469z"/>
	<path fill="#F7BA3F" d="M80.005,36.703V20.848h3.467v15.855H80.005z"/>
	<path fill="#F7BA3F" d="M86.61,28.788c0-4.896,3.783-8.202,8.69-8.202c3.564,0,5.639,1.878,6.784,3.875l-2.975,1.427
		c-0.685-1.284-2.148-2.307-3.81-2.307c-2.979,0-5.126,2.211-5.126,5.207c0,2.996,2.147,5.206,5.126,5.206
		c1.661,0,3.125-1.021,3.81-2.306l2.975,1.402c-1.146,1.973-3.22,3.898-6.784,3.898C90.394,36.988,86.61,33.66,86.61,28.788z"/>
	<path fill="#F7BA3F" d="M116.016,36.703v-6.68h-7.689v6.68h-3.466V20.848h3.466v6.228h7.689v-6.228h3.493v15.855H116.016z"/>
	<path fill="#F7BA3F" d="M134.657,36.703l-1.024-2.686h-6.98l-1.027,2.686h-3.931l6.274-15.855h4.346l6.273,15.855H134.657z
		 M130.14,24.224l-2.537,6.823h5.079L130.14,24.224z"/>
	<path fill="#F7BA3F" d="M152.552,36.703l-7.762-10.34v10.34h-3.469V20.848h3.564l7.546,9.96v-9.96h3.466v15.855H152.552z"/>
	<path fill="#F7BA3F" d="M171.072,36.703l-1.026-2.686h-6.983l-1.024,2.686h-3.932l6.274-15.855h4.347L175,36.703H171.072z
		 M166.556,24.224l-2.539,6.823h5.077L166.556,24.224z"/>
</g>
<g>
	<path fill="#F7BA3F" d="M25.292,57.505V41.649h10.326v1.237h-8.935v5.87h8.764v1.236h-8.764v7.512H25.292z"/>
	<path fill="#F7BA3F" d="M39.745,51.42v-9.771h1.417v9.747c0,3.209,1.733,5.158,4.93,5.158c3.199,0,4.932-1.949,4.932-5.158v-9.747
		h1.416v9.771c0,3.922-2.147,6.37-6.347,6.37C41.917,57.79,39.745,55.318,39.745,51.42z"/>
	<path fill="#F7BA3F" d="M68.311,57.505l-10.253-13.62v13.62h-1.391V41.649h1.416l10.205,13.433V41.649h1.391v15.855H68.311z"/>
	<path fill="#F7BA3F" d="M73.904,57.505V41.649h5.2c5.054,0,8.227,3.59,8.227,7.94c0,4.398-3.173,7.915-8.227,7.915H73.904z
		 M85.867,49.59c0-3.709-2.442-6.703-6.763-6.703h-3.808v13.382h3.808C83.401,56.269,85.867,53.299,85.867,49.59z"/>
</g>
<g>
	<path fill="#F7BA3F" d="M6.772,26.182c2.159-5.571,3.666-9.453,3.851-9.88c0.065-0.152,0.173-0.39,0.329-0.653
		c-0.093-0.072-0.182-0.145-0.291-0.203c-0.901-0.479-1.982-0.237-2.416,0.537L0.179,30.406c-0.434,0.773-0.054,1.789,0.847,2.268
		c0.902,0.477,1.983,0.234,2.415-0.539L6.772,26.182z"/>
	<path fill="#F7BA3F" d="M15.636,16.398c-1.154,0-2.253-0.223-3.266-0.615c0,0-0.001,0.001-0.001,0.001
		c-0.253,0.269-0.447,0.609-0.608,0.982c-0.009,0.021-0.024,0.057-0.039,0.094c-0.012,0.028-0.024,0.059-0.039,0.094
		c-0.277,0.689-1.171,2.985-2.251,5.77c-0.036,0.09-0.07,0.179-0.105,0.27c-0.271,0.696-0.55,1.417-0.834,2.151
		c-1.544,3.983-3.199,8.259-3.914,10.091c-0.006,0.016-0.012,0.031-0.019,0.047c-0.039,0.1-0.074,0.191-0.107,0.273
		c-0.009,0.025-0.019,0.051-0.028,0.072c-0.032,0.08-0.059,0.152-0.083,0.214c-0.005,0.011-0.01,0.024-0.013,0.034
		c-0.028,0.07-0.053,0.133-0.071,0.178c-0.694,1.727,0.625,2.105,1.694,2.105h2.651h4.269h1.63h4.092V15.893
		C17.667,16.214,16.674,16.398,15.636,16.398z"/>
	<path fill="#F7BA3F" d="M14.502,39.36v16.072c0,1.421,0.921,2.573,2.056,2.573c1.082,0,1.958-1.055,2.037-2.385V39.36H14.502z"/>
	<path fill="#F7BA3F" d="M3.576,54.479c-0.418,1.361,0.123,2.721,1.211,3.039c1.083,0.316,2.306-0.529,2.725-1.889l5.01-16.269
		H8.232L3.576,54.479z"/>
	<path fill="#F7BA3F" d="M15.38,0.005c-7.906,0-8.554,6.81-8.554,10.075c0.737,0,1.478,0,2.218,0
		c0.975,2.631,3.554,4.516,6.591,4.516c1.059,0,2.06-0.233,2.958-0.643V0.469C17.685,0.174,16.623,0.005,15.38,0.005z"/>
</g>
</svg>
