<?xml version="1.0" encoding="utf-8"?>
<!-- Generator: Adobe Illustrator 16.0.4, SVG Export Plug-In . SVG Version: 6.00 Build 0)  -->
<!DOCTYPE svg PUBLIC "-//W3C//DTD SVG 1.1//EN" "http://www.w3.org/Graphics/SVG/1.1/DTD/svg11.dtd">
<svg version="1.1" id="Layer_1" xmlns="http://www.w3.org/2000/svg" xmlns:xlink="http://www.w3.org/1999/xlink" x="0px" y="0px"
	 width="220px" height="220px" viewBox="0 0 220 220" enable-background="new 0 0 220 220" xml:space="preserve">
<g>
	<path fill="#FDC66E" d="M7.128,110c0-56.881,46.109-102.989,102.988-102.989S213.105,53.119,213.105,110
		c0,56.876-46.109,102.988-102.989,102.988S7.128,166.876,7.128,110z"/>
	<circle fill="#FFFFFF" cx="110.117" cy="110" r="66.043"/>
	<path fill="#FDC66E" d="M110.117,220c-60.654,0-110-49.346-110-110.001C0.117,49.345,49.463,0,110.117,0s110,49.345,110,109.999
		C220.117,170.654,170.771,220,110.117,220z M110.117,3.248c-58.863,0-106.752,47.888-106.752,106.75
		c0,58.865,47.889,106.753,106.752,106.753c58.864,0,106.752-47.889,106.752-106.753C216.869,51.136,168.98,3.248,110.117,3.248z"/>
	<circle fill="#FFFFFF" cx="194.904" cy="111.396" r="3.048"/>
	<circle fill="#FFFFFF" cx="25.027" cy="111.396" r="3.048"/>
	<g>
		<path fill="#FFFFFF" d="M39.871,83.669l-6.786-1.54l-1.961,8.649l6.786,1.54l-0.417,1.84L22.7,90.805l0.417-1.841l6.365,1.443
			l1.962-8.65l-6.365-1.443l0.418-1.841l14.792,3.355L39.871,83.669z"/>
		<path fill="#FFFFFF" d="M41.426,78.79l-13.884-6.115l4.007-9.095l1.54,0.677l-3.246,7.37l4.476,1.971l3.182-7.224l1.541,0.679
			l-3.181,7.222l4.787,2.109l3.246-7.368l1.541,0.679L41.426,78.79z"/>
		<path fill="#FFFFFF" d="M53.842,57.505l-3.518-0.943l-4.5,6.055l1.918,3.096l-1.288,1.734l-8.519-13.948l1.396-1.878l15.797,4.153
			L53.842,57.505z M40.177,53.719l4.655,7.453l3.835-5.163L40.177,53.719z"/>
		<path fill="#FFFFFF" d="M56.923,54.322L46.94,42.917l1.419-1.243l8.876,10.14l5.3-4.64l1.108,1.266L56.923,54.322z"/>
		<path fill="#FFFFFF" d="M66.933,46.333l-7.274-11.346l-4.036,2.588l-0.908-1.415l9.68-6.208l0.907,1.417l-4.055,2.601
			l7.274,11.344L66.933,46.333z"/>
		<path fill="#FFFFFF" d="M83.739,38.115l-2.563-6.467l-8.243,3.266l2.563,6.469l-1.755,0.695l-5.586-14.099l1.754-0.694
			l2.404,6.066l8.244-3.267l-2.404-6.066l1.755-0.695l5.586,14.099L83.739,38.115z"/>
		<path fill="#FFFFFF" d="M94.652,35.396l-1.818-15.057l9.865-1.191l0.201,1.67l-7.991,0.964l0.586,4.854l7.833-0.947l0.202,1.672
			l-7.834,0.945l0.627,5.192l7.992-0.966l0.201,1.672L94.652,35.396z"/>
		<path fill="#FFFFFF" d="M107.822,33.987l0.645-15.157l5.182,0.22c4.726,0.2,7.63,3.625,7.449,7.92
			c-0.185,4.317-3.369,7.437-8.095,7.235L107.822,33.987z M119.145,26.887c0.138-3.272-1.817-5.997-5.566-6.155l-3.297-0.14
			l-0.501,11.793l3.296,0.14C116.756,32.682,119.005,30.137,119.145,26.887z"/>
		<path fill="#FFFFFF" d="M123.885,29.077l2.123-9.029l1.859,0.438l-2.112,8.984c-0.635,2.699,0.402,4.742,3.124,5.381
			c2.722,0.641,4.583-0.72,5.218-3.419l2.112-8.984l1.858,0.436l-2.117,9.006c-0.864,3.675-3.452,5.541-7.457,4.599
			C124.511,35.553,123.031,32.706,123.885,29.077z"/>
		<path fill="#FFFFFF" d="M139.429,31.293c1.95-4.231,6.397-5.686,10.362-3.859c2.436,1.123,3.595,3.06,3.965,5.132l-1.796,0.149
			c-0.24-1.539-1.305-3.029-2.873-3.752c-3.014-1.389-6.363-0.155-7.886,3.148c-1.503,3.26-0.285,6.649,2.729,8.039
			c1.568,0.723,3.403,0.542,4.719-0.251l1.085,1.45c-1.889,1.056-4.072,1.451-6.509,0.328
			C139.26,39.851,137.478,35.524,139.429,31.293z"/>
		<path fill="#FFFFFF" d="M159.183,51.789l0.991-3.506l-5.996-4.583l-3.125,1.877l-1.716-1.312l14.067-8.335l1.86,1.421
			l-4.366,15.748L159.183,51.789z M163.15,38.169l-7.514,4.556l5.111,3.906L163.15,38.169z"/>
		<path fill="#FFFFFF" d="M163.468,56.211l9.963-9.095l-3.237-3.545l1.244-1.135l7.761,8.5l-1.243,1.136l-3.253-3.562l-9.963,9.097
			L163.468,56.211z"/>
		<path fill="#FFFFFF" d="M169.26,63.267l12.446-8.661l1.078,1.548l-12.446,8.661L169.26,63.267z"/>
		<path fill="#FFFFFF" d="M179.02,63.688c4.033-1.947,8.386-0.667,10.334,3.364c1.947,4.033,0.254,8.26-3.778,10.207
			c-4.032,1.948-8.396,0.648-10.345-3.384C173.283,69.842,174.988,65.636,179.02,63.688z M184.726,75.499
			c3.192-1.542,4.586-4.665,3.114-7.714c-1.484-3.07-4.776-3.878-7.971-2.336c-3.172,1.532-4.606,4.625-3.124,7.695
			C178.219,76.193,181.552,77.031,184.726,75.499z"/>
		<path fill="#FFFFFF" d="M181.922,93.486l9.747-11.375l-11.771,2.767l-0.433-1.836l14.761-3.47l0.44,1.881l-9.529,11.208
			l11.527-2.71l0.434,1.837l-14.761,3.47L181.922,93.486z"/>
	</g>
	<g>
		<path fill="#FFFFFF" d="M179.909,139.353l6.786,1.54l1.962-8.65l-6.786-1.539l0.417-1.84l14.792,3.354l-0.416,1.842l-6.365-1.443
			l-1.962,8.649l6.364,1.443l-0.417,1.842l-14.792-3.356L179.909,139.353z"/>
		<path fill="#FFFFFF" d="M178.354,144.232l13.885,6.115l-4.008,9.096l-1.538-0.678l3.244-7.37l-4.476-1.971l-3.181,7.224
			l-1.542-0.679l3.182-7.223l-4.786-2.109l-3.245,7.368l-1.541-0.679L178.354,144.232z"/>
		<path fill="#FFFFFF" d="M165.938,165.517l3.518,0.944l4.501-6.056l-1.919-3.096l1.288-1.733l8.52,13.948l-1.397,1.878
			l-15.798-4.153L165.938,165.517z M179.603,169.303l-4.654-7.452l-3.836,5.162L179.603,169.303z"/>
		<path fill="#FFFFFF" d="M162.857,168.7l9.983,11.404l-1.42,1.243l-8.876-10.141l-5.301,4.641l-1.106-1.266L162.857,168.7z"/>
		<path fill="#FFFFFF" d="M152.849,176.688l7.272,11.346l4.036-2.589l0.909,1.415l-9.681,6.207l-0.907-1.416l4.054-2.601
			l-7.272-11.345L152.849,176.688z"/>
		<path fill="#FFFFFF" d="M136.041,184.906l2.562,6.468l8.244-3.266l-2.563-6.469l1.754-0.694l5.588,14.099l-1.754,0.694
			l-2.404-6.066l-8.244,3.268l2.404,6.066l-1.756,0.694l-5.585-14.099L136.041,184.906z"/>
		<path fill="#FFFFFF" d="M125.128,187.626l1.819,15.058l-9.866,1.19l-0.201-1.67l7.991-0.964l-0.585-4.854l-7.835,0.946
			l-0.201-1.671l7.833-0.945l-0.627-5.192l-7.991,0.966l-0.201-1.672L125.128,187.626z"/>
		<path fill="#FFFFFF" d="M111.957,189.035l-0.645,15.156l-5.181-0.221c-4.726-0.199-7.631-3.625-7.449-7.92
			c0.184-4.316,3.367-7.437,8.093-7.235L111.957,189.035z M100.637,196.135c-0.139,3.271,1.816,5.996,5.566,6.155l3.295,0.14
			l0.501-11.793l-3.294-0.14C103.023,190.34,100.775,192.886,100.637,196.135z"/>
		<path fill="#FFFFFF" d="M95.896,193.944l-2.124,9.029l-1.859-0.438l2.113-8.984c0.635-2.699-0.403-4.742-3.125-5.382
			c-2.722-0.641-4.583,0.721-5.218,3.42l-2.113,8.984l-1.859-0.437l2.118-9.007c0.864-3.674,3.452-5.541,7.457-4.599
			C95.27,187.47,96.749,190.316,95.896,193.944z"/>
		<path fill="#FFFFFF" d="M80.353,191.729c-1.951,4.231-6.399,5.686-10.362,3.858c-2.436-1.123-3.596-3.06-3.966-5.132l1.795-0.149
			c0.242,1.538,1.306,3.029,2.875,3.752c3.013,1.39,6.361,0.156,7.884-3.147c1.503-3.261,0.287-6.65-2.726-8.039
			c-1.569-0.724-3.404-0.543-4.722,0.25l-1.083-1.449c1.888-1.057,4.073-1.451,6.509-0.328
			C80.519,183.172,82.303,187.498,80.353,191.729z"/>
		<path fill="#FFFFFF" d="M60.597,171.232l-0.99,3.507l5.997,4.583l3.123-1.878l1.716,1.312l-14.065,8.336l-1.861-1.421
			l4.365-15.748L60.597,171.232z M56.629,184.853l7.516-4.557l-5.112-3.905L56.629,184.853z"/>
		<path fill="#FFFFFF" d="M56.312,166.812l-9.963,9.095l3.237,3.545l-1.243,1.136l-7.762-8.501l1.244-1.136l3.252,3.562l9.963-9.098
			L56.312,166.812z"/>
		<path fill="#FFFFFF" d="M50.521,159.755l-12.446,8.661l-1.078-1.548l12.446-8.661L50.521,159.755z"/>
		<path fill="#FFFFFF" d="M40.761,159.333c-4.033,1.948-8.387,0.668-10.334-3.363c-1.947-4.033-0.253-8.26,3.779-10.207
			s8.396-0.648,10.344,3.385C46.497,153.18,44.793,157.386,40.761,159.333z M35.056,147.523c-3.193,1.541-4.588,4.664-3.115,7.714
			c1.483,3.07,4.776,3.877,7.969,2.336c3.172-1.532,4.608-4.625,3.125-7.695C41.562,146.828,38.228,145.991,35.056,147.523z"/>
		<path fill="#FFFFFF" d="M37.859,129.535l-9.749,11.376l11.772-2.768l0.432,1.837l-14.759,3.47l-0.443-1.881l9.531-11.208
			l-11.529,2.711l-0.432-1.837l14.76-3.47L37.859,129.535z"/>
	</g>
	<g>
		<path fill="#F8AB50" d="M134.785,139.004H91.081c-0.45,0-0.813-0.363-0.813-0.814l0,0c0-0.447,0.363-0.81,0.813-0.81h43.705
			V139.004z"/>
		<path fill="#F8AB50" d="M138.847,86.523v47.93v3.253v4.222H89.292c-2.065,0-3.737-1.675-3.737-3.738
			c0-1.704,1.147-3.125,2.706-3.574h47.173V76.451H86.367c-2.691,0-4.874,2.182-4.874,4.874v10.074v38.343v10.076
			c0,2.691,2.183,4.873,4.874,4.873h54.592V86.523H138.847z"/>
		<path fill="#FDC66E" d="M87.504,76.453v58.328h47.929V76.453H87.504z M120.816,106.565c0,0.812-0.662,1.472-1.474,1.472h-5.774
			v5.774c0,0.815-0.658,1.473-1.474,1.473h-3.685c-0.813,0-1.475-0.657-1.475-1.473v-5.774h-5.771c-0.813,0-1.475-0.66-1.475-1.472
			v-3.686c0-0.814,0.662-1.474,1.475-1.474h5.771v-5.774c0-0.813,0.662-1.472,1.475-1.472h3.685c0.815,0,1.474,0.658,1.474,1.472
			v5.774h5.774c0.812,0,1.474,0.66,1.474,1.474V106.565z"/>
	</g>
</g>
</svg>
